<svg width="640" height="640" viewBox="0 0 640 640" fill="none" xmlns="http://www.w3.org/2000/svg">
<circle cx="320" cy="320" r="304.5" stroke="#EEEEEE" stroke-width="31"/>
<g clip-path="url(#clip0_26_360)">
<path d="M278.61 241.461C278.758 241.068 278.913 240.692 279.069 240.307C278.913 240.692 278.758 241.076 278.61 241.461Z" fill="url(#paint0_linear_26_360)"/>
<path d="M456.101 316.613C454.564 313.848 452.503 311.115 449.975 309.275L449.861 309.193C441.453 303.001 433.495 310.6 428.17 317.291C416.483 332.572 401.957 346.315 383.063 351.771C356.13 359.371 325.418 353.587 302.754 335.697C279.813 316.122 268.616 286.198 274.218 257.175C275.249 251.833 276.639 246.729 278.414 241.968C278.349 242.148 278.275 242.32 278.209 242.5C279.216 238.131 282.413 229.894 285.75 223.227C290.715 213.304 296.383 205.983 303.466 199.194C317.174 186.048 335.331 177.328 353.685 172.174C363.737 169.352 374.222 168.076 384.658 168.411C388.036 168.518 391.43 168.837 394.8 169.328C371.547 158.415 347.428 154.865 321.681 158.211C258.302 165.499 207.38 220.462 200.69 282.697C199.405 298.731 199.103 314.036 202.988 332.122C217.105 397.891 275.723 450.695 344.312 453.893C362.183 454.727 380.814 455.063 395.029 448.764C419.73 437.827 435.826 423.577 449.37 397.981C462.923 372.361 468.525 339.902 456.118 316.604L456.101 316.613ZM428.898 384.721C423.966 385.964 418.944 382.913 417.677 377.907C416.409 372.892 419.386 367.821 424.31 366.577C429.242 365.334 434.264 368.385 435.531 373.391C436.799 378.406 433.822 383.478 428.898 384.721Z" fill="url(#paint1_linear_26_360)"/>
<path d="M276.696 457.312C277.662 450.228 286.339 448.92 292.613 446.76C309.535 440.944 329.508 425.557 338.406 416.739C342.856 412.362 347.403 406.865 351.125 402.12C354.167 398.374 355.558 396.877 359.623 399.086C364.203 401.752 369.053 405.319 373.535 408.395C381.174 413.614 387.251 420.231 397.025 425.77C403.854 429.639 422.715 432.085 422.715 432.085C408.328 444.551 393.254 452.535 385.656 455.946C373.257 461.517 355.091 468.806 322.711 469.902C307.596 470.417 275.821 469.182 276.696 457.402V457.304V457.312Z" fill="url(#paint2_linear_26_360)"/>
<path d="M285.767 223.227C282.43 229.894 279.232 238.131 278.226 242.5C284.049 226.442 297.054 211.194 316.765 208.167C335.429 205.296 353.178 213.525 362.943 229.182C369.372 239.489 371.302 251.522 386.409 253.044C400.018 254.418 417.112 249.968 428.816 239.497C437.265 231.939 447.816 218.073 445.82 206.916C444.234 198.842 431.851 190.743 424.686 185.819C415.027 179.176 405.441 174.088 394.817 169.319C391.447 168.829 388.053 168.518 384.675 168.403C374.238 168.068 363.753 169.344 353.701 172.166C335.347 177.32 317.19 186.04 303.482 199.185C296.399 205.975 290.731 213.296 285.767 223.219V223.227Z" fill="url(#paint3_linear_26_360)"/>
<path d="M308.725 439.12C262.53 417.892 231.909 385.662 218.454 336.965C203.061 281.258 215.837 217.436 253.386 187.357C234.992 202.089 219.845 219.89 209.588 245.6C201.671 265.445 200.542 283.597 200.011 290.469C194.752 359.248 240.03 422.244 298.46 444.437C301.863 442.923 305.314 441.107 308.725 439.12Z" fill="url(#paint4_linear_26_360)"/>
<path d="M334.865 300.849L334.84 300.964C333.646 309.479 343.559 315.116 349.235 320.097C357.504 326.707 364.407 333.652 370.746 342.004C373.429 345.219 375.899 349.53 378.941 352.81C380.324 352.491 381.698 352.156 383.063 351.771C400.002 346.879 413.424 335.329 424.441 321.987C418.257 315.958 405.228 307.5 396.665 303.663C389.762 300.571 382.744 297.855 375.236 296.113C361.52 292.931 338.848 289.037 334.873 300.857L334.865 300.849Z" fill="url(#paint5_linear_26_360)"/>
<path d="M201.769 326.175V326.151C200.011 324.466 198.309 322.568 196.608 320.245C188.756 309.455 185.616 295.099 185.485 281.814C185.395 276.668 185.837 270.885 186.344 265.789C186.475 262.476 188.209 252.291 185.689 250.017C185.256 249.625 184.602 249.567 184.062 249.796C182.884 250.295 182.009 251.702 180.79 253.388C179.187 255.907 177.592 258.803 176.709 261.69C161.553 311.312 176.235 375.126 225.325 415.61C242.32 429.622 267.642 442.473 291.836 447.005H291.852C294.003 446.294 296.228 445.427 298.469 444.429C250.36 426.154 211.175 380.222 201.769 326.175Z" fill="url(#paint6_linear_26_360)"/>
</g>
<defs>
<linearGradient id="paint0_linear_26_360" x1="279.069" y1="240.88" x2="278.61" y2="240.88" gradientUnits="userSpaceOnUse">
<stop stop-color="#94C83F"/>
<stop offset="0.1" stop-color="#88C86A"/>
<stop offset="0.19" stop-color="#7FC88C"/>
<stop offset="0.28" stop-color="#78C8A4"/>
<stop offset="0.36" stop-color="#74C8B2"/>
<stop offset="0.42" stop-color="#73C8B8"/>
<stop offset="0.99" stop-color="#146D7A"/>
</linearGradient>
<linearGradient id="paint1_linear_26_360" x1="463.004" y1="305.676" x2="199.831" y2="305.676" gradientUnits="userSpaceOnUse">
<stop stop-color="#94C83F"/>
<stop offset="0.1" stop-color="#88C86A"/>
<stop offset="0.19" stop-color="#7FC88C"/>
<stop offset="0.28" stop-color="#78C8A4"/>
<stop offset="0.36" stop-color="#74C8B2"/>
<stop offset="0.42" stop-color="#73C8B8"/>
<stop offset="0.99" stop-color="#146D7A"/>
</linearGradient>
<linearGradient id="paint2_linear_26_360" x1="-3744.27" y1="-101.902" x2="-3730.84" y2="-27.6951" gradientUnits="userSpaceOnUse">
<stop stop-color="#73C8B8"/>
<stop offset="0.2" stop-color="#73C8B4"/>
<stop offset="0.36" stop-color="#76C8AB"/>
<stop offset="0.49" stop-color="#7AC89B"/>
<stop offset="0.62" stop-color="#81C884"/>
<stop offset="0.74" stop-color="#89C866"/>
<stop offset="0.86" stop-color="#93C842"/>
<stop offset="0.87" stop-color="#95C83D"/>
</linearGradient>
<linearGradient id="paint3_linear_26_360" x1="320.838" y1="181.794" x2="403.745" y2="264.696" gradientUnits="userSpaceOnUse">
<stop stop-color="#306177"/>
<stop offset="0.15" stop-color="#345F75"/>
<stop offset="0.31" stop-color="#415A71"/>
<stop offset="0.48" stop-color="#56536B"/>
<stop offset="0.65" stop-color="#744862"/>
<stop offset="0.83" stop-color="#9B3A57"/>
<stop offset="1" stop-color="#C92A4A"/>
</linearGradient>
<linearGradient id="paint4_linear_26_360" x1="223.239" y1="403.086" x2="324.199" y2="228.247" gradientUnits="userSpaceOnUse">
<stop offset="0.18" stop-color="#306177"/>
<stop offset="0.29" stop-color="#51546D"/>
<stop offset="0.45" stop-color="#7C4560"/>
<stop offset="0.6" stop-color="#9D3956"/>
<stop offset="0.75" stop-color="#B5304F"/>
<stop offset="0.89" stop-color="#C42B4B"/>
<stop offset="1" stop-color="#C92A4A"/>
</linearGradient>
<linearGradient id="paint5_linear_26_360" x1="379.587" y1="292.849" x2="379.587" y2="352.81" gradientUnits="userSpaceOnUse">
<stop stop-color="#73C8B8"/>
<stop offset="0.27" stop-color="#5BA3A0"/>
<stop offset="0.58" stop-color="#437F8A"/>
<stop offset="0.84" stop-color="#35697C"/>
<stop offset="1" stop-color="#306177"/>
</linearGradient>
<linearGradient id="paint6_linear_26_360" x1="234.73" y1="249.666" x2="234.73" y2="447.014" gradientUnits="userSpaceOnUse">
<stop stop-color="#C92A4A"/>
<stop offset="0.06" stop-color="#BA2F4E"/>
<stop offset="0.29" stop-color="#89405C"/>
<stop offset="0.5" stop-color="#624E68"/>
<stop offset="0.7" stop-color="#465870"/>
<stop offset="0.87" stop-color="#355E75"/>
<stop offset="1" stop-color="#306177"/>
</linearGradient>
<clipPath id="clip0_26_360">
<rect width="292" height="313" fill="white" transform="translate(171 157)"/>
</clipPath>
</defs>
</svg>
