<svg width="61" height="61" viewBox="0 0 61 61" fill="none" xmlns="http://www.w3.org/2000/svg">
<g filter="url(#filter0_i_2_258)">
<path d="M55.0017 9.25177L51.7484 5.99844C51.4624 5.70949 51.122 5.48012 50.7468 5.32357C50.3716 5.16703 49.9691 5.08643 49.5626 5.08643C49.156 5.08643 48.7535 5.16703 48.3783 5.32357C48.0031 5.48012 47.6627 5.70949 47.3767 5.99844L5.99838 47.3768C5.70943 47.6628 5.48005 48.0032 5.32351 48.3784C5.16697 48.7536 5.08636 49.1561 5.08636 49.5626C5.08636 49.9692 5.16697 50.3717 5.32351 50.7468C5.48005 51.122 5.70943 51.4625 5.99838 51.7484L9.25171 55.0018C9.53592 55.2938 9.87578 55.526 10.2512 55.6845C10.6266 55.843 11.03 55.9247 11.4375 55.9247C11.8451 55.9247 12.2485 55.843 12.6239 55.6845C12.9993 55.526 13.3392 55.2938 13.6234 55.0018L55.0017 13.6234C55.2938 13.3392 55.5259 12.9994 55.6844 12.6239C55.8429 12.2485 55.9246 11.8451 55.9246 11.4376C55.9246 11.0301 55.8429 10.6267 55.6844 10.2513C55.5259 9.87584 55.2938 9.53598 55.0017 9.25177Z" stroke="white" stroke-width="5.2834" stroke-linecap="round" stroke-linejoin="round"/>
<path d="M35.5833 17.7917L43.2083 25.4167" stroke="white" stroke-width="5.2834" stroke-linecap="round" stroke-linejoin="round"/>
<path d="M12.7083 15.25V25.4167" stroke="white" stroke-width="5.2834" stroke-linecap="round" stroke-linejoin="round"/>
<path d="M48.2917 35.5833V45.7499" stroke="white" stroke-width="5.2834" stroke-linecap="round" stroke-linejoin="round"/>
<path d="M25.4167 5.08325V10.1666" stroke="white" stroke-width="5.2834" stroke-linecap="round" stroke-linejoin="round"/>
<path d="M17.7917 20.3333H7.625" stroke="white" stroke-width="5.2834" stroke-linecap="round" stroke-linejoin="round"/>
<path d="M53.375 40.6667H43.2083" stroke="white" stroke-width="5.2834" stroke-linecap="round" stroke-linejoin="round"/>
<path d="M27.9583 7.625H22.875" stroke="white" stroke-width="5.2834" stroke-linecap="round" stroke-linejoin="round"/>
</g>
<defs>
<filter id="filter0_i_2_258" x="0" y="0" width="61" height="63" filterUnits="userSpaceOnUse" color-interpolation-filters="sRGB">
<feFlood flood-opacity="0" result="BackgroundImageFix"/>
<feBlend mode="normal" in="SourceGraphic" in2="BackgroundImageFix" result="shape"/>
<feColorMatrix in="SourceAlpha" type="matrix" values="0 0 0 0 0 0 0 0 0 0 0 0 0 0 0 0 0 0 127 0" result="hardAlpha"/>
<feOffset dy="2"/>
<feGaussianBlur stdDeviation="2"/>
<feComposite in2="hardAlpha" operator="arithmetic" k2="-1" k3="1"/>
<feColorMatrix type="matrix" values="0 0 0 0 0 0 0 0 0 0 0 0 0 0 0 0 0 0 0.25 0"/>
<feBlend mode="normal" in2="shape" result="effect1_innerShadow_2_258"/>
</filter>
</defs>
</svg>
