<svg width="65" height="65" viewBox="0 0 65 65" fill="none" xmlns="http://www.w3.org/2000/svg">
<g filter="url(#filter0_i_2_308)">
<path d="M52.8125 18.9583C54.7142 27.8859 54.7142 37.114 52.8125 46.0416" stroke="white" stroke-width="4.91667" stroke-linecap="round" stroke-linejoin="round"/>
<path d="M12.1875 18.9583C10.2858 27.8859 10.2858 37.114 12.1875 46.0416" stroke="white" stroke-width="4.91667" stroke-linecap="round" stroke-linejoin="round"/>
<path d="M18.9583 52.8125C27.886 54.7142 37.114 54.7142 46.0417 52.8125" stroke="white" stroke-width="4.91667" stroke-linecap="round" stroke-linejoin="round"/>
<path d="M18.9583 12.1875C27.886 10.2858 37.114 10.2858 46.0417 12.1875" stroke="white" stroke-width="4.91667" stroke-linecap="round" stroke-linejoin="round"/>
<path d="M56.875 46.0417H48.75C47.2542 46.0417 46.0417 47.2543 46.0417 48.7501V56.8751C46.0417 58.3709 47.2542 59.5834 48.75 59.5834H56.875C58.3708 59.5834 59.5833 58.3709 59.5833 56.8751V48.7501C59.5833 47.2543 58.3708 46.0417 56.875 46.0417Z" stroke="white" stroke-width="4.91667" stroke-linecap="round" stroke-linejoin="round"/>
<path d="M56.875 5.41675H48.75C47.2542 5.41675 46.0417 6.62931 46.0417 8.12508V16.2501C46.0417 17.7459 47.2542 18.9584 48.75 18.9584H56.875C58.3708 18.9584 59.5833 17.7459 59.5833 16.2501V8.12508C59.5833 6.62931 58.3708 5.41675 56.875 5.41675Z" stroke="white" stroke-width="4.91667" stroke-linecap="round" stroke-linejoin="round"/>
<path d="M16.25 46.0417H8.12501C6.62923 46.0417 5.41667 47.2543 5.41667 48.7501V56.8751C5.41667 58.3709 6.62923 59.5834 8.12501 59.5834H16.25C17.7458 59.5834 18.9583 58.3709 18.9583 56.8751V48.7501C18.9583 47.2543 17.7458 46.0417 16.25 46.0417Z" stroke="white" stroke-width="4.91667" stroke-linecap="round" stroke-linejoin="round"/>
<path d="M16.25 5.41675H8.12501C6.62923 5.41675 5.41667 6.62931 5.41667 8.12508V16.2501C5.41667 17.7459 6.62923 18.9584 8.12501 18.9584H16.25C17.7458 18.9584 18.9583 17.7459 18.9583 16.2501V8.12508C18.9583 6.62931 17.7458 5.41675 16.25 5.41675Z" stroke="white" stroke-width="4.91667" stroke-linecap="round" stroke-linejoin="round"/>
</g>
<defs>
<filter id="filter0_i_2_308" x="0" y="0" width="65" height="67" filterUnits="userSpaceOnUse" color-interpolation-filters="sRGB">
<feFlood flood-opacity="0" result="BackgroundImageFix"/>
<feBlend mode="normal" in="SourceGraphic" in2="BackgroundImageFix" result="shape"/>
<feColorMatrix in="SourceAlpha" type="matrix" values="0 0 0 0 0 0 0 0 0 0 0 0 0 0 0 0 0 0 127 0" result="hardAlpha"/>
<feOffset dy="2"/>
<feGaussianBlur stdDeviation="2"/>
<feComposite in2="hardAlpha" operator="arithmetic" k2="-1" k3="1"/>
<feColorMatrix type="matrix" values="0 0 0 0 0 0 0 0 0 0 0 0 0 0 0 0 0 0 0.25 0"/>
<feBlend mode="normal" in2="shape" result="effect1_innerShadow_2_308"/>
</filter>
</defs>
</svg>
